<svg xmlns="http://www.w3.org/2000/svg" xmlns:xlink="http://www.w3.org/1999/xlink" viewBox="0 0 425.68 277.21"><defs><style>.cls-1{fill:url(#Degradado_sin_nombre_133);}.cls-2{fill:url(#Degradado_sin_nombre_133-2);}.cls-3{fill:url(#Degradado_sin_nombre_133-3);}.cls-4{fill:url(#Degradado_sin_nombre_133-4);}.cls-5{fill:url(#Degradado_sin_nombre_133-5);}.cls-6{fill:url(#Degradado_sin_nombre_133-6);}.cls-7{fill:url(#Degradado_sin_nombre_133-7);}.cls-8{fill:url(#Degradado_sin_nombre_133-8);}.cls-9{fill:url(#Degradado_sin_nombre_133-9);}</style><linearGradient id="Degradado_sin_nombre_133" x1="-14.18" y1="200.05" x2="410.54" y2="125.01" gradientUnits="userSpaceOnUse"><stop offset="0" stop-color="#ed6a6d"/><stop offset="0.22" stop-color="#ee6e6b"/><stop offset="0.45" stop-color="#f07b65"/><stop offset="0.69" stop-color="#f38f5b"/><stop offset="0.92" stop-color="#f8ac4c"/><stop offset="1" stop-color="#fab747"/></linearGradient><linearGradient id="Degradado_sin_nombre_133-2" x1="-14.17" y1="200.11" x2="410.55" y2="125.07" xlink:href="#Degradado_sin_nombre_133"/><linearGradient id="Degradado_sin_nombre_133-3" x1="-14.17" y1="200.08" x2="410.54" y2="125.04" gradientTransform="translate(340.18 -23.47) rotate(87.69)" xlink:href="#Degradado_sin_nombre_133"/><linearGradient id="Degradado_sin_nombre_133-4" x1="-14.17" y1="200.13" x2="410.55" y2="125.09" xlink:href="#Degradado_sin_nombre_133"/><linearGradient id="Degradado_sin_nombre_133-5" x1="-32.67" y1="95.37" x2="392.04" y2="20.33" xlink:href="#Degradado_sin_nombre_133"/><linearGradient id="Degradado_sin_nombre_133-6" x1="-33.06" y1="93.18" x2="391.66" y2="18.14" xlink:href="#Degradado_sin_nombre_133"/><linearGradient id="Degradado_sin_nombre_133-7" x1="-32.58" y1="95.92" x2="392.14" y2="20.88" xlink:href="#Degradado_sin_nombre_133"/><linearGradient id="Degradado_sin_nombre_133-8" x1="-32.66" y1="95.45" x2="392.06" y2="20.41" xlink:href="#Degradado_sin_nombre_133"/><linearGradient id="Degradado_sin_nombre_133-9" x1="-18.72" y1="174.34" x2="406" y2="99.3" xlink:href="#Degradado_sin_nombre_133"/></defs><g id="Capa_2" data-name="Capa 2"><g id="Capa_1-2" data-name="Capa 1"><path class="cls-1" d="M116.88,97.2l-41.45,7.31v159.4l41.45-7.31V203.47c27.62-4.87,27.62-39,27.62-58C144.5,127,144.5,92.33,116.88,97.2Z"/><path class="cls-2" d="M289.19,120c0-18.51,0-53.13-27.62-48.26L220.11,79V238.4l69.08-12.18-15-53.67C289.18,161,289.19,135.46,289.19,120Z"/><ellipse class="cls-3" cx="182.31" cy="165.37" rx="79.98" ry="34.41" transform="translate(9.71 340.85) rotate(-87.69)"/><polygon class="cls-4" points="361.53 96.57 361.53 71.36 361.53 54.07 292.46 66.25 292.46 83.54 292.46 108.75 306.28 106.31 306.28 223.21 347.71 215.9 347.71 99.01 361.53 96.57 361.53 96.57"/><path class="cls-5" d="M125.35,66.12c-.15.47-.29.94-.44,1.41s-.28,1-.43,1.41-.29.9-.43,1.31l3.45-.61-1.72-4.83C125.64,65.21,125.49,65.65,125.35,66.12Z"/><path class="cls-6" d="M279.7,36.63a1.75,1.75,0,0,0-.54-.38,1.59,1.59,0,0,0-.7-.12l-.59.07-.6.08-1.55.28v4.13l2.07-.37.36-.07.35-.1a1.94,1.94,0,0,0,.7-.36,2.3,2.3,0,0,0,.53-.55,2.38,2.38,0,0,0,.33-.68,2.57,2.57,0,0,0,.11-.72,1.82,1.82,0,0,0-.12-.65A1.71,1.71,0,0,0,279.7,36.63Z"/><path class="cls-7" d="M240.56,44.51a3.26,3.26,0,0,0-1.35-.72,3.91,3.91,0,0,0-1.71,0,4.67,4.67,0,0,0-1.71.65A5.46,5.46,0,0,0,233.25,49a4.35,4.35,0,0,0,.32,1.69,3.27,3.27,0,0,0,2.22,2,3.91,3.91,0,0,0,1.71,0,4.84,4.84,0,0,0,1.71-.64,5.46,5.46,0,0,0,1.35-1.18,5.38,5.38,0,0,0,.88-1.57,5.24,5.24,0,0,0,.31-1.8,4.37,4.37,0,0,0-.31-1.68A3.41,3.41,0,0,0,240.56,44.51Z"/><path class="cls-8" d="M354.39,25.73c-.14.47-.29.94-.43,1.42s-.29.94-.43,1.41-.3.9-.44,1.3l3.46-.6-1.72-4.84C354.68,24.83,354.54,25.27,354.39,25.73Z"/><path class="cls-9" d="M404.1,139.54c0-25.92,21.17-57.17,21.17-83.43,0-53.45-31.52-60.86-70.85-53.92L71.26,52.12C31.93,59.05.41,77.57.41,131c0,26.26,21.17,50,21.17,76,0,15-9.66,28.89-21.58,31v39.23c39.32-6.93,71.2-25,71.2-79,0-26.56-21.53-47.65-21.53-75.9,0-15,9.66-19.14,21.59-21.25L354.42,51.16C366.34,49.06,376,49.78,376,64.8c0,28.25-21.53,56.92-21.53,83.49,0,54,31.88,60.8,71.2,53.86V162.92C413.76,165,404.1,154.56,404.1,139.54Zm-310.62-58A.51.51,0,0,1,93,82l-3.19.56c-.34.06-.52-.07-.54-.4l-1-8.52-2.53,9.19a1,1,0,0,1-.17.3.5.5,0,0,1-.27.21l-3,.52a.36.36,0,0,1-.29-.1.4.4,0,0,1-.16-.25l-2.53-8.28-1,8.85a.59.59,0,0,1-.55.59l-3.18.56c-.33.06-.49-.08-.49-.41l1.61-16a.68.68,0,0,1,.16-.37.57.57,0,0,1,.38-.22l3.89-.68a.42.42,0,0,1,.54.33l3.06,9.67L86.9,66.84a.73.73,0,0,1,.58-.53l3.84-.68a.48.48,0,0,1,.37.08.39.39,0,0,1,.18.32c.27,2.59.53,5.16.81,7.71s.54,5.12.8,7.72Zm40.42-6.83a.65.65,0,0,1-.43.22l-3.23.57a.6.6,0,0,1-.39,0,.43.43,0,0,1-.22-.28c-.15-.36-.3-.71-.44-1.06s-.29-.71-.43-1.07l-6,1c-.14.41-.29.82-.43,1.22s-.3.81-.44,1.22a.71.71,0,0,1-.57.52l-3.32.58a.45.45,0,0,1-.35-.05c-.1-.06-.11-.17-.05-.33l6.1-16.89a.37.37,0,0,1,.08-.15A1.19,1.19,0,0,1,124,60a1.33,1.33,0,0,1,.19-.14.56.56,0,0,1,.19-.07l2.88-.51a.45.45,0,0,1,.33.06,1.25,1.25,0,0,1,.2.17l.28.59,5.9,14.19A.35.35,0,0,1,133.9,74.68Zm35.4-6.62a.68.68,0,0,1-.12.38.62.62,0,0,1-.37.23l-10,1.77c-.33.06-.5-.08-.5-.41V54.31a.63.63,0,0,1,.51-.59l3.33-.58a.49.49,0,0,1,.35.07.38.38,0,0,1,.16.33V65.78l6.19-1.09a.43.43,0,0,1,.35.07.4.4,0,0,1,.14.35Zm35.76-6.3a.66.66,0,0,1-.13.37.58.58,0,0,1-.37.23l-10,1.78c-.33,0-.5-.08-.5-.41V48a.62.62,0,0,1,.14-.38.6.6,0,0,1,.37-.21l3.33-.59a.48.48,0,0,1,.35.08.41.41,0,0,1,.17.33V59.47l6.18-1.09a.42.42,0,0,1,.35.08.38.38,0,0,1,.15.34ZM245.8,49.05a10.62,10.62,0,0,1-2.22,4.17,11.33,11.33,0,0,1-1.74,1.65,10.21,10.21,0,0,1-2.06,1.23,9.12,9.12,0,0,1-2.28.7,8.12,8.12,0,0,1-2.29.1,7.23,7.23,0,0,1-2.06-.5,7,7,0,0,1-1.74-1,6.56,6.56,0,0,1-1.34-1.49,7,7,0,0,1-.87-1.9,8,8,0,0,1-.3-2.23,9.16,9.16,0,0,1,.3-2.34,10.26,10.26,0,0,1,.87-2.21,11,11,0,0,1,1.34-2,10.9,10.9,0,0,1,3.8-2.88,9.51,9.51,0,0,1,2.29-.71,8.41,8.41,0,0,1,2.28-.1,7.59,7.59,0,0,1,2.06.51,6.61,6.61,0,0,1,1.74,1,6.52,6.52,0,0,1,1.35,1.52,7.48,7.48,0,0,1,.87,1.9,8.06,8.06,0,0,1,.31,2.23A9.3,9.3,0,0,1,245.8,49.05Zm39.19-1a.6.6,0,0,1-.32.15l-3.86.68a.55.55,0,0,1-.34-.05.43.43,0,0,1-.2-.27l-2.73-4.66-1.82.32v5.07a.55.55,0,0,1-.52.58l-3.34.59a.47.47,0,0,1-.36-.06.37.37,0,0,1-.13-.34V34.4a.65.65,0,0,1,.12-.4.56.56,0,0,1,.37-.2l7.27-1.28a5.09,5.09,0,0,1,2.17,0,4.46,4.46,0,0,1,1.76.86A4.39,4.39,0,0,1,284.25,35a4.69,4.69,0,0,1,.43,2,5.31,5.31,0,0,1-.21,1.49,6.36,6.36,0,0,1-.58,1.4,6.72,6.72,0,0,1-.88,1.25,7.28,7.28,0,0,1-1.12,1l2.89,4.94c.06.09.12.2.21.33a.7.7,0,0,1,.12.35A.41.41,0,0,1,285,48.09ZM322.73,40a1.07,1.07,0,0,1-.28.33,11.22,11.22,0,0,1-2.28,1.5,9.56,9.56,0,0,1-2.57.84,8.49,8.49,0,0,1-2.29.1,7.24,7.24,0,0,1-2.05-.5,6.92,6.92,0,0,1-1.74-1,6.9,6.9,0,0,1-2.21-3.39,8.08,8.08,0,0,1-.3-2.24,9.27,9.27,0,0,1,.3-2.34,10.15,10.15,0,0,1,.87-2.21,10.6,10.6,0,0,1,1.34-2,11,11,0,0,1,3.79-2.88,9.24,9.24,0,0,1,2.29-.72,8.47,8.47,0,0,1,2.55-.07,7.18,7.18,0,0,1,2.25.69.51.51,0,0,1,.28.24.5.5,0,0,1,0,.44l-1.9,3a.58.58,0,0,1-.27.27.48.48,0,0,1-.34,0,3.79,3.79,0,0,0-1.21-.43,4.19,4.19,0,0,0-1.41,0,4.86,4.86,0,0,0-1.7.64,5.68,5.68,0,0,0-1.34,1.2,5.59,5.59,0,0,0-.87,1.57,5.15,5.15,0,0,0-.32,1.79,4.29,4.29,0,0,0,.32,1.67,3.51,3.51,0,0,0,.87,1.25,3.39,3.39,0,0,0,1.34.71,3.86,3.86,0,0,0,1.7.05,5.18,5.18,0,0,0,1.42-.48,5.27,5.27,0,0,0,1.22-.86.6.6,0,0,1,.34-.16.38.38,0,0,1,.27.15l1.92,2.43A.41.41,0,0,1,322.73,40ZM363,34.3a.7.7,0,0,1-.43.21l-3.23.57a.72.72,0,0,1-.4,0,.49.49,0,0,1-.22-.29c-.15-.35-.3-.71-.44-1.06l-.42-1.07-6,1.06c-.14.4-.28.81-.43,1.22s-.29.81-.43,1.21a.7.7,0,0,1-.58.52l-3.31.59a.52.52,0,0,1-.36-.06c-.09,0-.11-.16-.05-.32L352.78,20a.43.43,0,0,1,.07-.16.8.8,0,0,1,.15-.17,1.25,1.25,0,0,1,.19-.15,1,1,0,0,1,.2-.07l2.87-.51a.45.45,0,0,1,.33.06.92.92,0,0,1,.2.18l.28.59L363,33.93A.35.35,0,0,1,363,34.3Z"/></g></g></svg>